<?xml version="1.0" encoding="UTF-8" standalone="no"?>
<!-- Created with Inkscape (http://www.inkscape.org/) -->

<svg
   xmlns:dc="http://purl.org/dc/elements/1.1/"
   xmlns:cc="http://creativecommons.org/ns#"
   xmlns:rdf="http://www.w3.org/1999/02/22-rdf-syntax-ns#"
   xmlns:svg="http://www.w3.org/2000/svg"
   xmlns="http://www.w3.org/2000/svg"
   xmlns:sodipodi="http://sodipodi.sourceforge.net/DTD/sodipodi-0.dtd"
   xmlns:inkscape="http://www.inkscape.org/namespaces/inkscape"
   width="120"
   height="120"
   viewBox="0 0 31.749999 31.75"
   version="1.1"
   id="svg8"
   inkscape:version="0.92.4 (5da689c313, 2019-01-14)"
   sodipodi:docname="favicon.svg"
   inkscape:export-filename="G:\toas_datamine\favicon.png"
   inkscape:export-xdpi="102.4"
   inkscape:export-ydpi="102.4">
  <defs
     id="defs2" />
  <sodipodi:namedview
     id="base"
     pagecolor="#ffffff"
     bordercolor="#666666"
     borderopacity="1.0"
     inkscape:pageopacity="0.0"
     inkscape:pageshadow="2"
     inkscape:zoom="5.6"
     inkscape:cx="69.317741"
     inkscape:cy="54.800616"
     inkscape:document-units="mm"
     inkscape:current-layer="layer2"
     showgrid="false"
     showguides="true"
     inkscape:guide-bbox="true"
     inkscape:snap-center="true"
     fit-margin-top="0"
     fit-margin-left="0"
     fit-margin-right="0"
     fit-margin-bottom="0"
     units="px"
     inkscape:window-width="1264"
     inkscape:window-height="1012"
     inkscape:window-x="1280"
     inkscape:window-y="360"
     inkscape:window-maximized="0">
    <sodipodi:guide
       position="15.87499,15.875003"
       orientation="1,0"
       id="guide828"
       inkscape:locked="false" />
  </sodipodi:namedview>
  <metadata
     id="metadata5">
    <rdf:RDF>
      <cc:Work
         rdf:about="">
        <dc:format>image/svg+xml</dc:format>
        <dc:type
           rdf:resource="http://purl.org/dc/dcmitype/StillImage" />
        <dc:title />
      </cc:Work>
    </rdf:RDF>
  </metadata>
  <g
     inkscape:label="Layer 1"
     inkscape:groupmode="layer"
     id="layer1"
     transform="translate(-88.70864,-134.77991)">
    <path
       style="opacity:1;vector-effect:none;fill:#c94b48;fill-opacity:1;stroke:none;stroke-width:1.88976383;stroke-linecap:butt;stroke-linejoin:miter;stroke-miterlimit:4;stroke-dasharray:none;stroke-dashoffset:0;stroke-opacity:1;paint-order:normal"
       d="M 60 4.5429688 L 49.912109 42.142578 L 60 57.052734 L 70.089844 42.142578 L 60 4.5429688 z M 60 27.974609 C 62.056453 27.974119 63.677539 29.593937 63.677734 31.650391 C 63.678225 33.70735 62.056959 35.328616 60 35.328125 C 57.943548 35.327929 56.323728 33.706843 56.324219 31.650391 C 56.324414 29.594444 57.944053 27.974805 60 27.974609 z "
       transform="matrix(0.26458333,0,0,0.26458333,88.70864,134.77991)"
       id="path826" />
    <path
       style="opacity:1;vector-effect:none;fill:#532264;fill-opacity:1;stroke:none;stroke-width:1.88976383;stroke-linecap:butt;stroke-linejoin:miter;stroke-miterlimit:4;stroke-dasharray:none;stroke-dashoffset:0;stroke-opacity:1;paint-order:normal"
       d="M 11.972656 32.273438 L 39.492188 59.808594 L 57.447266 58.527344 L 49.580078 42.333984 L 11.972656 32.273438 z M 35.275391 42.154297 C 35.979229 42.120614 36.678649 42.288602 37.289062 42.640625 C 39.071613 43.668397 39.664166 45.884404 38.634766 47.666016 C 37.606196 49.44688 35.391974 50.038714 33.611328 49.009766 C 31.830776 47.981667 31.237743 45.768958 32.265625 43.988281 C 32.892606 42.902088 34.022639 42.213888 35.275391 42.154297 z "
       transform="matrix(0.26458333,0,0,0.26458333,88.70864,134.77991)"
       id="path826-0" />
    <path
       style="opacity:1;vector-effect:none;fill:#aeaeae;fill-opacity:1;stroke:none;stroke-width:1.88976383;stroke-linecap:butt;stroke-linejoin:miter;stroke-miterlimit:4;stroke-dasharray:none;stroke-dashoffset:0;stroke-opacity:1;paint-order:normal"
       d="M 39.492188 60.191406 L 11.974609 87.728516 L 49.580078 77.666016 L 57.449219 61.474609 L 39.492188 60.191406 z M 35.349609 70.496094 C 36.651053 70.462185 37.927658 71.110522 38.634766 72.335938 C 39.66281 74.116968 39.06863 76.329432 37.287109 77.357422 C 35.506642 78.385155 33.293753 77.792091 32.265625 76.011719 C 31.237275 74.231552 31.830427 72.016713 33.611328 70.988281 C 34.168043 70.666682 34.757574 70.51152 35.349609 70.496094 z "
       transform="matrix(0.26458333,0,0,0.26458333,88.70864,134.77991)"
       id="path826-4" />
    <path
       style="opacity:1;vector-effect:none;fill:#d0b44e;fill-opacity:1;stroke:none;stroke-width:1.88976383;stroke-linecap:butt;stroke-linejoin:miter;stroke-miterlimit:4;stroke-dasharray:none;stroke-dashoffset:0;stroke-opacity:1;paint-order:normal"
       d="M 60 62.947266 L 49.910156 77.857422 L 60 115.45703 L 70.087891 77.857422 L 60 62.947266 z M 60 84.671875 C 62.056452 84.672071 63.676272 86.293157 63.675781 88.349609 C 63.675586 90.405556 62.055947 92.025195 60 92.025391 C 57.943547 92.025881 56.322461 90.406063 56.322266 88.349609 C 56.321775 86.29265 57.943041 84.671384 60 84.671875 z "
       transform="matrix(0.26458333,0,0,0.26458333,88.70864,134.77991)"
       id="path826-8" />
    <path
       style="opacity:1;vector-effect:none;fill:#309b30;fill-opacity:1;stroke:none;stroke-width:1.88976383;stroke-linecap:butt;stroke-linejoin:miter;stroke-miterlimit:4;stroke-dasharray:none;stroke-dashoffset:0;stroke-opacity:1;paint-order:normal"
       d="M 80.507812 60.191406 L 62.552734 61.472656 L 70.419922 77.666016 L 108.02734 87.726562 L 80.507812 60.191406 z M 84.375 70.501953 A 2.1718609 2.1718609 0 0 1 84.376953 70.501953 C 85.080914 70.468642 85.778388 70.637784 86.388672 70.990234 C 88.169224 72.018333 88.762257 74.231042 87.734375 76.011719 C 86.706699 77.792728 84.493899 78.387053 82.712891 77.359375 A 2.1718609 2.1718609 0 0 1 82.710938 77.359375 C 80.928387 76.331603 80.335834 74.115596 81.365234 72.333984 C 81.992751 71.247905 83.122054 70.56087 84.375 70.501953 z "
       transform="matrix(0.26458333,0,0,0.26458333,88.70864,134.77991)"
       id="path826-6" />
    <path
       style="opacity:1;vector-effect:none;fill:#1b86ca;fill-opacity:1;stroke:none;stroke-width:1.88976383;stroke-linecap:butt;stroke-linejoin:miter;stroke-miterlimit:4;stroke-dasharray:none;stroke-dashoffset:0;stroke-opacity:1;paint-order:normal"
       d="M 108.02539 32.271484 L 70.419922 42.333984 L 62.550781 58.525391 L 80.507812 59.808594 L 108.02539 32.271484 z M 84.462891 42.150391 C 85.810978 42.118395 87.060007 42.8186 87.734375 43.986328 C 88.763118 45.767306 88.169994 47.98162 86.388672 49.009766 C 84.607694 50.038509 82.39338 49.445384 81.365234 47.664062 C 80.336696 45.882753 80.93111 43.668349 82.712891 42.640625 C 83.24627 42.332833 83.847229 42.164909 84.462891 42.150391 z "
       transform="matrix(0.26458333,0,0,0.26458333,88.70864,134.77991)"
       id="path826-7" />
  </g>
  <g
     inkscape:groupmode="layer"
     id="layer2"
     inkscape:label="Layer 2"
     style="display:none">
    <path
       transform="scale(0.26458333)"
       sodipodi:type="inkscape:offset"
       inkscape:radius="-2.1716437"
       inkscape:original="M 60 25.802734 C 56.770556 25.803042 54.152651 28.420947 54.152344 31.650391 C 54.151573 34.880597 56.769794 37.499692 60 37.5 C 63.230969 37.500771 65.85038 34.88136 65.849609 31.650391 C 65.849302 28.420184 63.230207 25.801963 60 25.802734 z M 84.412109 39.978516 C 83.432951 40.001606 82.475271 40.270236 81.626953 40.759766 C 78.82822 42.374065 77.868797 45.952005 79.484375 48.75 C 81.099343 51.548024 84.677126 52.50653 87.474609 50.890625 C 90.272633 49.275657 91.231139 45.697874 89.615234 42.900391 C 88.545629 41.048275 86.550289 39.927769 84.412109 39.978516 z M 35.171875 39.984375 C 33.183564 40.078955 31.379887 41.178377 30.384766 42.902344 C 28.770191 45.699392 29.728539 49.27571 32.525391 50.890625 C 35.322363 52.506858 38.899987 51.549268 40.515625 48.751953 C 42.132534 45.953523 41.172952 42.374118 38.373047 40.759766 C 37.402314 40.199949 36.291182 39.930809 35.171875 39.984375 z M 35.292969 68.324219 C 34.349983 68.348789 33.399677 68.602371 32.525391 69.107422 C 29.728109 70.722792 28.768999 74.300617 30.384766 77.097656 C 31.999758 79.89428 35.576117 80.852744 38.373047 79.238281 C 41.170869 77.623856 42.130455 74.047606 40.515625 71.25 C 39.405437 69.326048 37.367538 68.270167 35.292969 68.324219 z M 84.273438 68.332031 C 82.284812 68.425541 80.480344 69.524265 79.484375 71.248047 C 77.867466 74.046477 78.827048 77.625882 81.626953 79.240234 C 84.424512 80.854482 88.000989 79.895217 89.615234 77.097656 C 91.229809 74.300608 90.271461 70.72429 87.474609 69.109375 C 86.504081 68.548877 85.392936 68.279057 84.273438 68.332031 z M 60 82.5 C 56.769031 82.499229 54.14962 85.11864 54.150391 88.349609 C 54.150698 91.579816 56.769793 94.198037 60 94.197266 C 63.229444 94.196958 65.847349 91.579053 65.847656 88.349609 C 65.848427 85.119403 63.230206 82.500308 60 82.5 z "
       style="opacity:1;vector-effect:none;fill:#ff00ff;fill-opacity:1;stroke:none;stroke-width:1.88976383;stroke-linecap:butt;stroke-linejoin:miter;stroke-miterlimit:4;stroke-dasharray:none;stroke-dashoffset:0;stroke-opacity:1;paint-order:normal"
       id="rect822"
       d="m 60,27.974609 c -2.055947,1.96e-4 -3.675586,1.619835 -3.675781,3.675782 -4.91e-4,2.056452 1.619329,3.677538 3.675781,3.677734 2.056959,4.91e-4 3.678225,-1.620775 3.677734,-3.677734 C 63.677539,29.593937 62.056453,27.974119 60,27.974609 Z m 24.462891,14.175782 c -0.615662,0.01452 -1.216621,0.182442 -1.75,0.490234 -1.781781,1.027724 -2.376195,3.242127 -1.347657,5.023437 1.028146,1.781322 3.24246,2.374447 5.023438,1.345704 1.781322,-1.028146 2.374446,-3.24246 1.345703,-5.023438 -0.674368,-1.167728 -1.923397,-1.867933 -3.271484,-1.835937 z m -49.1875,0.0039 c -1.252752,0.05959 -2.382785,0.747791 -3.009766,1.833984 -1.027882,1.780677 -0.434849,3.993386 1.345703,5.021485 1.780646,1.028948 3.994868,0.437114 5.023438,-1.34375 1.0294,-1.781612 0.436847,-3.997619 -1.345704,-5.025391 -0.610414,-0.352023 -1.309833,-0.520011 -2.013671,-0.486328 z m 0.07422,28.341797 c -0.592035,0.01543 -1.181566,0.170588 -1.738281,0.492187 -1.780901,1.028432 -2.374053,3.243271 -1.345703,5.023438 1.028128,1.780372 3.241017,2.373436 5.021484,1.345703 1.781521,-1.02799 2.375701,-3.240453 1.347657,-5.021484 -0.707108,-1.225416 -1.983713,-1.873753 -3.285157,-1.839844 z m 49.025391,0.0059 c -1.252946,0.05892 -2.382249,0.745952 -3.009766,1.832031 -1.0294,1.781612 -0.436847,3.997619 1.345704,5.025391 a 2.1718609,2.1718609 0 0 1 0.002,0 c 1.781008,1.027678 3.993808,0.433353 5.021484,-1.347656 1.027882,-1.780677 0.434849,-3.993386 -1.345703,-5.021485 -0.610284,-0.35245 -1.307758,-0.521592 -2.011719,-0.488281 a 2.1718609,2.1718609 0 0 1 -0.002,0 z M 60,84.671875 c -2.056959,-4.91e-4 -3.678225,1.620775 -3.677734,3.677734 1.95e-4,2.056454 1.621281,3.676272 3.677734,3.675782 2.055947,-1.96e-4 3.675586,-1.619835 3.675781,-3.675782 C 63.676272,86.293157 62.056452,84.672071 60,84.671875 Z" />
  </g>
</svg>
